<?xml version="1.0" standalone="no"?>
<!DOCTYPE svg PUBLIC "-//W3C//DTD SVG 20010904//EN"
 "http://www.w3.org/TR/2001/REC-SVG-20010904/DTD/svg10.dtd">
<svg version="1.0" xmlns="http://www.w3.org/2000/svg"
 width="512.000000pt" height="512.000000pt" viewBox="0 0 512.000000 512.000000"
 preserveAspectRatio="xMidYMid meet">
<metadata>
Created by potrace 1.14, written by Peter Selinger 2001-2017
</metadata>
<g transform="translate(0.000000,512.000000) scale(0.100000,-0.100000)"
fill="#000000" stroke="none">
<path d="M2427 4744 c-1 -1 -36 -5 -77 -8 -754 -68 -1444 -554 -1767 -1243
-82 -175 -160 -423 -179 -568 -3 -27 -8 -52 -9 -55 -2 -3 -7 -48 -11 -100 -15
-179 -7 -432 16 -549 5 -25 11 -59 14 -76 9 -67 60 -247 99 -350 291 -782
1021 -1340 1847 -1412 170 -15 375 -8 540 18 97 15 97 15 205 42 534 135 1015
489 1313 964 59 94 153 289 196 405 127 345 164 751 100 1118 -8 47 -17 93
-20 102 -2 9 -7 25 -9 37 -20 102 -83 285 -147 422 -38 80 -152 279 -179 313
-5 6 -34 44 -65 84 -315 417 -785 711 -1304 816 -41 8 -100 18 -130 21 -30 3
-71 9 -90 12 -33 5 -337 12 -343 7z m423 -509 c84 -109 199 -361 259 -570 32
-112 75 -302 86 -380 3 -22 7 -47 10 -55 2 -8 7 -42 10 -75 3 -33 8 -73 11
-90 5 -31 8 -72 20 -242 l6 -103 -266 0 -266 0 0 827 0 827 58 -60 c31 -33 64
-68 72 -79z m-450 -695 l0 -820 -266 0 -266 0 6 108 c12 183 28 328 52 457 8
44 17 96 20 115 9 55 72 298 95 365 55 157 144 346 210 442 38 55 128 153 140
153 5 0 9 -369 9 -820z m-498 706 c-87 -162 -166 -368 -222 -578 -23 -91 -76
-351 -85 -423 -3 -27 -8 -63 -10 -80 -8 -63 -15 -123 -20 -190 -12 -137 -14
-170 -14 -212 l-1 -43 -425 0 c-234 0 -425 3 -425 8 0 24 33 217 46 272 122
506 477 965 929 1202 96 50 241 116 258 117 5 1 -9 -32 -31 -73z m1349 48
c427 -173 772 -491 976 -897 57 -114 127 -300 140 -372 2 -11 8 -36 13 -55 5
-19 12 -52 16 -74 3 -21 7 -46 9 -55 1 -9 6 -40 10 -68 l7 -53 -426 0 -426 0
-1 43 c-1 81 -22 337 -34 407 -2 14 -7 45 -10 70 -9 69 -34 208 -50 275 -8 33
-17 74 -20 90 -25 142 -132 438 -221 610 -29 58 -52 105 -51 105 2 0 32 -12
68 -26z m-1700 -1936 c0 -24 2 -61 4 -83 2 -22 6 -76 10 -120 6 -86 11 -134
21 -205 3 -25 8 -58 10 -74 3 -25 24 -149 39 -231 5 -25 16 -73 50 -215 10
-43 81 -255 107 -320 38 -95 127 -278 139 -285 5 -4 9 -10 9 -15 0 -24 -247
90 -383 177 -291 185 -529 455 -678 767 -95 201 -149 386 -174 599 l-6 47 426
0 425 0 1 -42z m849 -785 l0 -827 -51 49 c-97 95 -213 299 -288 505 -30 85
-95 313 -104 366 -3 16 -12 63 -20 104 -16 76 -18 91 -36 235 -13 102 -19 165
-27 293 l-6 102 266 0 266 0 0 -827z m845 710 c-3 -65 -8 -129 -10 -143 -2
-14 -7 -54 -10 -90 -4 -36 -9 -74 -11 -85 -2 -11 -6 -40 -10 -65 -13 -111 -87
-441 -111 -500 -3 -8 -7 -19 -9 -25 -22 -91 -138 -343 -201 -440 -43 -65 -139
-175 -154 -175 -5 0 -9 341 -9 820 l0 820 266 0 266 0 -7 -117z m1170 70 c-38
-324 -158 -630 -353 -898 -172 -237 -408 -435 -677 -568 -83 -41 -205 -90
-205 -82 0 2 15 30 34 63 134 227 271 679 312 1027 3 22 7 51 9 65 11 58 33
326 34 403 l1 37 425 0 426 0 -6 -47z"/>
</g>
</svg>
